<svg id="Capa_1" enable-background="new 0 0 458.326 458.326" height="512" viewBox="0 0 458.326 458.326" width="512" xmlns="http://www.w3.org/2000/svg"><g><path d="m41.189 224.21 30.334-55.223h317.341l30.334 55.223-14.522 18.411-300.741 5.182-56.519-15.036z" fill="#dbd8dd"/><path d="m53.637 273.212h353.113v185.114h-353.113z" fill="#dbd8dd"/><path d="m41.189 224.21h378.003v59.89h-378.003z" fill="#bbbbcd"/><path d="m88.246 320.269h283.895v101.888h-283.895z" fill="#eeefee"/><g fill="#575b6d"><path d="m115.802 350.915h12.856c13.787 0 20.681 6.692 20.681 20.077 0 13.679-6.894 20.518-20.681 20.518h-12.856zm5.371 35.772h7.372c4.433.544 8.871-.972 12.045-4.114 2.337-3.396 3.468-7.478 3.214-11.592.253-4.013-.875-7.991-3.197-11.274-3.223-3.064-7.649-4.522-12.062-3.974h-7.367z"/><path d="m174.35 350.222c5.27-.179 10.362 1.92 13.973 5.763 7.237 8.865 7.237 21.597 0 30.462-7.736 7.673-20.211 7.673-27.947 0-7.274-8.847-7.274-21.604 0-30.451 3.62-3.833 8.705-5.935 13.974-5.774zm-.056 37.387c3.803.108 7.458-1.474 9.983-4.321 5.181-7.217 5.181-16.934 0-24.152-2.489-2.839-6.113-4.423-9.888-4.321-3.828-.119-7.511 1.463-10.061 4.321-5.216 7.2-5.216 16.935 0 24.135 2.513 2.856 6.165 4.445 9.966 4.338z"/><path d="m232.753 391.511h-5.511l-21.268-32.044v32.044h-5.097v-40.595h5.483l21.268 32.044v-32.044h5.125z"/><path d="m275.182 391.511h-6.064l-4.706-12.352h-17.008l-4.471 12.352h-5.69l15.594-40.601h5.791zm-12.352-16.618-7.143-18.853-6.813 18.831z"/><path d="m308.523 355.733h-13.414v35.772h-5.399v-35.772h-13.336v-4.818h32.15v4.818z"/><path d="m344.585 391.511h-30.272v-40.595h29.327v4.818h-23.939v12.408h22.402v4.818h-22.402v13.739h24.895z"/><path d="m338.308 195.436c-.025 4.322-3.548 7.805-7.87 7.78-.004 0-.008 0-.012 0h-197.745c-4.322.031-7.85-3.447-7.881-7.769 0-.004 0-.008 0-.011.025-4.322 3.548-7.805 7.869-7.78h.011 197.746c4.322-.031 7.85 3.447 7.881 7.769.001.003.001.007.001.011z"/></g><path d="m254.138 114.58-9.424-50.863c-1.747-9.443-8.814-17.014-18.115-19.406-43.211-11.123-113.804-21.307-130.824-16.723l-14.057 61.074s30.395 34.302 67.508 34.76c5.57.021 11.117.723 16.517 2.09 4.118 1.078 8.001 2.909 11.453 5.399l35.191 25.381c4.909 3.532 11.737 2.519 15.41-2.286 3.083-4.055 3.035-9.681-.117-13.683l-28.958-36.666c-3.655-4.626-2.868-11.34 1.758-14.995 1.491-1.178 3.269-1.937 5.151-2.198 4.815-.67 9.475 1.997 11.335 6.489l12.012 29.003z" fill="#fed19a"/><path d="m111.777 14.212-27.723 94.98c-.459 1.561-2.091 2.459-3.655 2.012l-39.126-11.179c-1.572-.452-2.481-2.093-2.029-3.665.007-.025.015-.049.022-.074l29.685-94.22c.483-1.521 2.085-2.387 3.622-1.956l37.164 10.413c1.575.443 2.493 2.078 2.05 3.653-.003.013-.006.024-.01.036z" fill="#575b6d"/><circle cx="84.054" cy="27.727" fill="#bbbbcd" r="9.871"/><path d="m296.338 159.854c.003 16.27-6.474 31.871-17.998 43.357h-89.368c-11.506-11.496-17.974-27.092-17.981-43.357-.017-9.886 2.386-19.627 6.998-28.372 5.331-10.195 13.389-18.709 23.274-24.593 15.139-9.01 33.345-11.309 50.248-6.344 26.462 7.612 44.725 31.775 44.827 59.309z" fill="#f6c863"/><path d="m283.93 159.854c.019 17.554-8.919 33.906-23.704 43.368h-55.782c-23.963-15.403-30.902-47.314-15.5-71.277 4.625-7.196 10.968-13.129 18.457-17.264 14.32-7.887 31.53-8.521 46.392-1.71 18.356 8.381 30.134 26.703 30.137 46.883z" fill="#eab54e"/><path d="m276.457 159.854c.001 21.256-15.158 39.489-36.057 43.368h-16.114c-23.968-4.498-39.752-27.574-35.255-51.542.643-3.425 1.689-6.762 3.116-9.941v-.034c4.107-9.054 11.142-16.462 19.971-21.033 4.51-2.346 9.396-3.884 14.437-4.544 1.917-.269 3.849-.413 5.785-.43 4.085-.006 8.15.57 12.073 1.71h.034c18.961 5.398 32.033 22.731 32.01 42.446z" fill="#f6c863"/><path d="m260.124 157.384c-.62-7.603-6.905-13.497-14.532-13.627-7.87 0-12.012 5.696-15.617 14.901-2.739 6.707-5.785 10.206-10.765 10.206-5.165 0-8.865-4.326-8.865-10.732-.012-1.064.073-2.126.252-3.175.46-3.517 1.703-6.887 3.639-9.86l-6.064-2.146c-1.576 2.405-2.684 5.087-3.264 7.903v.034c-.441 1.93-.681 3.901-.715 5.88h-4.572v5.696h4.852c.749 7.975 7.362 14.12 15.371 14.281 8.06 0 12.755-4.701 16.55-13.973 3.236-7.87 5.589-11.179 10.296-11.179 3.611 0 7.78 2.616 7.78 9.58.039 4.006-1.026 7.945-3.08 11.386l5.975 2.236c2.041-3.577 3.122-7.62 3.141-11.738h4.667v-5.673z" fill="#eab54e"/><path d="m212.386 156.299-35.163-25.381c-3.45-2.493-7.334-4.324-11.453-5.399-5.398-1.373-10.946-2.074-16.517-2.085-1.677 0-3.354-.106-19.63-34.028l52.216-25.152c14.795 35.716 15.516 37.683 16.897 39.427l28.947 36.677c3.748 4.906 2.808 11.922-2.098 15.669-3.87 2.957-9.21 3.067-13.199.272z" fill="#fed19a"/></g></svg>