<svg id="Layer_1" enable-background="new 0 0 511.659 511.659" height="512" viewBox="0 0 511.659 511.659" width="512" xmlns="http://www.w3.org/2000/svg"><g><g><g><path d="m255.829 1.659c-98.131 0-158.58 55.352-158.747 55.445 0 0-2.513 3.137-2.983 5.222-3.818 16.948-7.385 39.663-7.385 56.238 0 140.833 118.763 254.972 259.596 254.972l17.314-348.041c-32.742-15.294-69.271-23.836-107.795-23.836z" fill="#afe6ff"/></g><g><path d="m346.288 366.338c-140.833 0-255-114.167-255-255 0-18.615 2.007-36.753 5.795-54.234-58.645 46.72-96.254 118.747-96.254 199.555 0 87.917 44.492 165.443 112.189 211.289l140.999 43.705c.604.004 1.208.006 1.813.006 95.345 0 179.407-52.617 223.129-131.455z" fill="#73c8f0"/></g></g><g><g><path d="m133.554 225.246-81.763-141.618c-6.785-11.753-21.814-15.78-33.566-8.994-6.25 3.609-10.315 9.549-11.731 16.087l15.205 39.074 69.295 120.022c6.785 11.753 21.814 15.779 33.566 8.994 11.752-6.785 15.779-21.813 8.994-33.565z" fill="#fab9af"/></g><g><path d="m85.906 79.379v116.996c0 54.003 43.778 97.78 97.78 97.78l61.713-46.944 22.787-65.27v-102.562z" fill="#fab9af"/></g><g><path d="m113.018 219.327v248.62c10.525 7.128 21.61 13.489 33.176 19.005l107.822-267.625z" fill="#fab9af"/></g><g><path d="m281.467 200.719v-124.69c0-9.921-5.892-18.448-14.356-22.328v76.432l-.011 9.437c-.069 58.192-31.31 111.886-81.865 140.703-23.549 13.424-38.15 38.389-38.304 65.495l-.737 141.183c32.7 15.595 69.243 24.431 107.822 24.7v-247.382c16.046-16.618 26.262-38.891 27.341-63.55z" fill="#fa968c"/></g><g><ellipse cx="103.525" cy="212.83" fill="#fab9af" rx="40.015" ry="69.262" transform="matrix(.866 -.5 .5 .866 -92.545 80.276)"/></g><g><path d="m214.455 109.901c3.182 6.413.104 16.136-9.233 16.136h-119.316v16.181c0 7.576 3.426 14.352 8.814 18.863l.007-.004c9.339 7.818 22.641 7.454 31.539-.002v-.033c3.78-3.166 6.59-7.442 7.927-12.338.648 4.352-2.919 17.687 8.814 27.511l.008-.004c9.128 7.641 22.4 7.649 31.539-.002v-.019c5.388-4.503 8.818-11.264 8.818-18.837v-9.609c.986 5.906 4.075 11.1 8.475 14.784l.007-.004c9.122 7.636 22.402 7.649 31.539-.002v-.021c5.387-4.504 8.818-11.262 8.818-18.835v-22.975c.986 6.702 4.075 14.063 8.475 17.746.005 0 .009 0 .014.001 6.585 5.506 21.705 6.958 31.532-1.271v-.03c5.384-4.505 8.819-11.256 8.819-18.827v-8.407h-66.596z" fill="#fa968c"/></g><g><g><g><path d="m85.906 131.611v-98.343c0-13.58 11.009-24.589 24.589-24.589 13.58 0 24.589 11.009 24.589 24.589v4.953l-4.887 93.181-35.477 19.071c-5.387-4.51-8.814-11.286-8.814-18.862z" fill="#fab9af"/></g></g><g><g><path d="m134.193 146.744v-122.155c0-13.58 11.009-24.589 24.59-24.589 13.58 0 24.589 11.009 24.589 24.589v15.177l-3.978 106.979-36.387 18.862c-5.387-4.511-8.814-11.286-8.814-18.863z" fill="#fab9af"/></g></g><g><g><path d="m191.846 151.919c-5.387-4.511-8.814-11.286-8.814-18.862v-102.681c0-13.58 11.009-24.589 24.589-24.589 13.58 0 24.589 11.009 24.589 24.589v8.707l-8.951 93.974z" fill="#fab9af"/></g></g><g><g><path d="m240.686 127.827c-5.388-4.511-8.814-14.54-8.814-22.116v-67.622c0-13.58 11.009-24.589 24.589-24.589 13.58 0 24.589 11.009 24.589 24.589v6.2l-12.896 57.438c.001 14.778-12.766 27.585-27.468 26.1z" fill="#fab9af"/></g></g><g><g><path d="m273.865 34.416c3.969 0 7.186 3.217 7.186 7.186v16.933c-4.324 8.636-9.116 18.993-14.366 27.042 0 0-.003-26.302-.005-43.98-.001-3.968 3.216-7.181 7.185-7.181z" fill="#fa968c"/></g></g><g><g><path d="m266.684 44.935h14.366v62.766c0 9.928-5.896 18.46-14.366 22.343z" fill="#fa968c"/></g></g><g><g><path d="m256.461 87.541c8.71 0 15.771 7.061 15.771 15.771v23.245c-4.27 3.575-9.766 5.733-15.771 5.733-6.004 0-11.501-.894-15.771-4.469v-26.498c.001-8.71 7.061-13.782 15.771-13.782z" fill="#f9d1cd"/></g></g><g><g><path d="m216.338 113.916v-79.946c0-4.383 3.553-7.937 7.937-7.937 4.383 0 7.937 3.553 7.937 7.937v99.087c0 7.578-3.436 14.34-8.829 18.844z" fill="#fa968c"/></g></g><g><g><path d="m167.498 128.269v-100.208c0-4.383 3.553-7.937 7.937-7.937 4.383 0 7.937 3.553 7.937 7.937v118.683c0 7.578-3.434 14.342-8.828 18.845z" fill="#fa968c"/></g></g><g><g><path d="m126.551 28.803c4.383 0 7.937 3.553 7.937 7.937v100.206c-1.847 8.341-7.927 15.071-15.873 17.854v-118.059c-.001-4.384 3.553-7.938 7.936-7.938z" fill="#fa968c"/></g></g><g><g><path d="m110.496 111.866c8.71 0 15.771 7.061 15.771 15.771v22.831c-4.27 3.575-9.766 5.733-15.771 5.733-6.004 0-11.501-2.158-15.771-5.733v-22.831c0-8.71 7.061-15.771 15.771-15.771z" fill="#f9d1cd"/></g></g><g><g><path d="m158.783 125.641c8.71 0 15.771 7.061 15.771 15.771v24.189c-4.27 3.575-9.766 5.733-15.771 5.733-6.004 0-11.501-2.158-15.771-5.733v-24.189c0-8.71 7.061-15.771 15.771-15.771z" fill="#f9d1cd"/></g></g><g><g><path d="m191.851 127.058c0-8.71 7.061-15.771 15.771-15.771 8.71 0 15.771 7.061 15.771 15.771v24.855c-4.27 3.575-9.766 5.733-15.771 5.733-6.004 0-11.501-2.158-15.771-5.733z" fill="#f9d1cd"/></g></g></g><g><path d="m27.625 107.936-11.698-19.589c-3.379-1.902-13.939-.882-15.098 4.528l7.649 13.92c.234.473.484.941.752 1.405l5.644 9.776 14.495 1.916c.994-3.917.491-8.213-1.744-11.956z" fill="#f9d1cd"/></g><g><path d="m20.761 116.538c-2.125 0-4.126.521-5.886 1.438l6.824 11.82c3.983-2.199 6.637-5.822 7.669-9.904-2.272-2.077-5.287-3.354-8.607-3.354z" fill="#ffdcd7"/></g></g><g><path d="m411.175 54.423-77.929-16.255c-13.77 0-24.933 11.163-24.933 24.933v87.699h163.077l16.131-.79c-17.403-37.747-43.759-70.517-76.346-95.587z" fill="#a0f6fa"/></g><g><path d="m324.668 50.621h65.426v100.179h-65.426z" fill="#78e3ec"/></g><g><path d="m487.523 150.009h-179.21v172.093h184.793l9.647-1.711c.814-3.142 1.584-6.302 2.275-9.494.178-1.087 5.801-23.477 5.801-54.239 0-38.075-8.345-74.201-23.306-106.649z" fill="#eb3b61"/></g><g><path d="m457.342 320.398c-37.34 0-67.609-30.27-67.609-67.609v-102.78h-81.42v192.589c0 13.77 11.163 24.933 24.933 24.933l159.443-16.255c3.988-9.986 7.367-20.293 10.089-30.878z" fill="#d62b58"/></g><g><path d="m401.952 359.277v20.927h77.005c3.107-5.603 6.011-11.339 8.701-17.197z" fill="#50d1dd"/></g><g><path d="m325.536 380.204h36.532v-28.928h-34.456v-296.853h83.562c-14.67-11.286-30.603-21.011-47.551-28.927h-38.088c-14.83 0-26.852 12.022-26.852 26.852v301.005c.002 14.829 12.024 26.851 26.853 26.851z" fill="#25bbcc"/></g><g><circle cx="389.475" cy="210.778" fill="#d62b58" r="21.656"/></g><g><circle cx="433.433" cy="256.638" fill="#d62b58" r="9.554"/></g><g><circle cx="480.557" cy="207.594" fill="#d62b58" r="10.828"/></g><g><circle cx="451.267" cy="320.332" fill="#d62b58" r="17.834"/></g><g><path d="m361.469 352.944v27.499c0 7.551 6.121 13.673 13.673 13.673h15.378c7.551 0 13.673-6.122 13.673-13.673v-27.499z" fill="#25bbcc"/></g><g><path d="m492.689 351.276h-165.077v11.73h160.045c1.772-3.857 3.45-7.768 5.032-11.73z" fill="#25bbcc"/></g><g><path d="m283.028 493.119c-60.349 0-109.446-49.097-109.446-109.446v-42.26h19.285v42.26c0 49.715 40.446 90.161 90.16 90.161 49.715 0 90.161-40.446 90.161-90.161v-38.537h19.285v38.537c0 60.349-49.097 109.446-109.445 109.446z" fill="#d62b58"/></g><g><path d="m320.062 166.817h37.319v13.179h-37.319z" fill="#25bbcc"/></g><g><path d="m320.062 203.719h37.319v13.179h-37.319z" fill="#25bbcc"/></g><g><path d="m320.062 240.622h37.319v13.179h-37.319z" fill="#25bbcc"/></g><g><path d="m320.062 277.524h37.319v13.179h-37.319z" fill="#25bbcc"/></g><g><path d="m320.062 314.427h37.319v13.179h-37.319z" fill="#25bbcc"/></g><g><path d="m221.089 304.383h-13.727l-25.045 5.942-23.698-5.942h-13.727c-12.224 0-22.133 9.909-22.133 22.133 0 12.224 9.909 22.133 22.133 22.133h13.727l24.371-5.532 24.371 5.532h13.727c12.224 0 22.133-9.909 22.133-22.133.001-12.224-9.908-22.133-22.132-22.133z" fill="#12376e"/></g><g><path d="m158.62 304.383h48.742v44.266h-48.742z" fill="#0f4c96"/></g><g><circle cx="171.949" cy="315.473" fill="#12376e" r="4.395"/></g><g><circle cx="182.991" cy="326.516" fill="#12376e" r="4.395"/></g><g><circle cx="194.033" cy="315.473" fill="#12376e" r="4.395"/></g><g><circle cx="171.949" cy="338.722" fill="#12376e" r="4.395"/></g><g><circle cx="194.033" cy="338.722" fill="#12376e" r="4.395"/></g></g></svg>